<mxfile host="app.diagrams.net" modified="2023-04-04T07:19:12.240Z" agent="Mozilla/5.0 (Windows NT 10.0; Win64; x64) AppleWebKit/537.36 (KHTML, like Gecko) Chrome/111.0.0.0 Safari/537.36" version="21.1.1" etag="hGyR4l3LS6TAuAhtLP32" type="github">
  <diagram name="Page-1" id="cPDnUo5NXJGGiVtdwY4F">
    <mxGraphModel>
      <root>
        <mxCell id="0" />
        <mxCell id="1" parent="0" />
      </root>
    </mxGraphModel>
  </diagram>
</mxfile>
